# xmcd
#
# Track frame offsets:
#	150
#	9035
#	22546
#	34724
#	50139
#	61913
#	72629
#	85312
#	98139
#	107537
#	123562
#	134937
#	147137
#	163981
#	182216
#	199334
#	211370
#	224918
#
# Disc length: 3207 seconds
#
# Revision: 1
# Processed by: cddbd v1.5.1PL0 Copyright (c) Steve Scherf et al.
# Submitted via: audiograbber 1.82.02
#
DISCID=140c8512
DTITLE=Various Artist - Christmas Pan Pipes
DYEAR=1900
DGENRE=Christmas
TTITLE0=Good King Wenceslas
TTITLE1=We Wish You A Merry Christmas
TTITLE2=Angels From The Realms Of Glory
TTITLE3=The Christmas Song
TTITLE4=The Little Drummer Boy
TTITLE5=Rudolph The Red Nose Reindeer
TTITLE6=Under The Mistletoe
TTITLE7=Unto Us A Child Is Born
TTITLE8=Here We Come A-Wassailing
TTITLE9=When A Child Is Born
TTITLE10=Ave Maria
TTITLE11=Christmas Tree (O Tannenbaum)
TTITLE12=The Twelve Days Of Christmas
TTITLE13=Mary's Boy Child
TTITLE14=Oh Holy Night
TTITLE15=Away In A Manger
TTITLE16=I Heard The Bells On Christmas Day
TTITLE17=Rise Up Shepherd And Follow
EXTD=
EXTT0=
EXTT1=
EXTT2=
EXTT3=
EXTT4=
EXTT5=
EXTT6=
EXTT7=
EXTT8=
EXTT9=
EXTT10=
EXTT11=
EXTT12=
EXTT13=
EXTT14=
EXTT15=
EXTT16=
EXTT17=
PLAYORDER=
